<svg id="Layer_1" data-name="Layer 1" xmlns="http://www.w3.org/2000/svg" viewBox="0 0 50.9 59.03"><defs><style>.cls-1{fill:none;stroke:#f2f2f2;stroke-miterlimit:10;fill-rule:evenodd;}</style></defs><title>Paw-icon-line</title><path class="cls-1" d="M32.37,1c9,2.63,17.59,22,2.39,24.43C29.57,26.28,30,14.1,30,8.9c0-2.56-.44-6.47,1.2-7.42Z" transform="translate(-4.53 -0.47)"/><path class="cls-1" d="M21.91,2.92c4.25.07,6.56,9.1,6.58,13.77,0,4.36.1,9.24-3.47,9.94-4.91,1-11-7.24-9.94-12.82C16,9,18.13,5,21.91,2.92Z" transform="translate(-4.53 -0.47)"/><path class="cls-1" d="M9.05,22.8c3.86-.07,10.46,4.73,11,7.67.27,1.46-1.18,2.75-1.76,3.51-1.73,2.31-4.49,5.88-7.85,6.38-2.4.36-3.35-2.69-4-4.25C4.32,30.77,4.14,25.42,9.05,22.8Z" transform="translate(-4.53 -0.47)"/><path class="cls-1" d="M48.49,22.59c7.75,0,10.18,18.52-2.27,16.23-5-.92-10.5-5.4-6.59-10.92C42,24.51,44.5,24.29,48.49,22.59Z" transform="translate(-4.53 -0.47)"/><path class="cls-1" d="M27.55,29.74c8.67,0,10.28,8.19,13.33,13.86,1.18,2.18,3.69,4.68,2.37,8-.71,1.76-2.15,3.81-4.21,4.21s-3.59,0-5.09.61S31.74,58.59,30.09,59c-1.88.4-2.6-1.64-4.38-1.85l-5.44.44C16,56.68,11.1,50.22,12.9,44.3c1.45-4.77,4.88-4.49,8.16-7.11.79-.63,1.14-1.91,1.58-2.89C23.85,31.54,24.72,30.92,27.55,29.74Z" transform="translate(-4.53 -0.47)"/></svg>