<svg xmlns="http://www.w3.org/2000/svg" viewBox="0 0 390.7689 438"><defs><style>.cls-1,.cls-2{fill:#f6f6f6;}.cls-1{fill-rule:evenodd;}</style></defs><title>Artboard 1</title><g id="Layer_2" data-name="Layer 2"><path class="cls-1" d="M227.1427-.4309C281.11,15.3026,332.3108,130.83,241.4639,145.6446c-31.0232,5.0589-28.64-67.7226-28.6423-98.8158-.0012-15.3123-2.6682-38.7273,7.1606-44.3955Q223.5619,1.0012,227.1427-.4309Z"/><path class="cls-1" d="M134.7715,11.026c25.4426.4648,39.2094,54.4065,39.3831,82.3464.162,26.0937.5982,55.2447-20.7657,59.4327-29.3675,5.7568-65.7924-43.2453-59.4326-76.618C99.478,47.2119,112.1554,23.3272,134.7715,11.026Z"/><path class="cls-1" d="M51.7089,127.521c29.8536-.53,81.0451,36.6307,85.2107,59.4326,2.0617,11.2842-9.1112,21.2526-13.605,27.21-13.4577,17.8408-34.8129,45.5334-60.8648,49.4079-18.5772,2.7628-25.9248-20.8405-30.79-32.9386C15.0078,189.2292,13.6622,147.8012,51.7089,127.521Z"/><path class="cls-1" d="M343.86,114.41c56.4458.1295,74.1321,134.8385-16.4693,118.1493-36.2381-6.6752-76.4909-39.3055-47.9758-79.4823C296.8914,128.4532,314.839,126.7889,343.86,114.41Z"/><path class="cls-2" d="M311.7565,302.2073C284.79,252.14,270.497,179.3633,193.8482,179.6448c-25.028,10.5032-32.6972,15.9745-43.44,40.337-3.85,8.7307-6.9713,20.0195-13.9629,25.5986-28.9671,23.1136-59.3382,20.6659-72.1412,62.8326-7.1466,23.5367-2.2941,48.0381,8.6239,68.5763a15.1846,15.1846,0,0,0,3.6792-2.958c4.0075-4.2339,6.4277-9.694,10.6034-13.81a2.7771,2.7771,0,0,0,.4355-1.3111,22.5751,22.5751,0,0,1,7.0274-11.6081,171.1358,171.1358,0,0,0,33.8822-44.184,12.1391,12.1391,0,0,1,3.575-3.8723c17.1174-12.9713,30.97-29.1533,44.6845-45.4689,1.1705-1.3925,1.4638-3.2154,2.2268-4.8108q6.2916-13.1532,12.53-26.3317c1.3034-2.7662,2.4379-.8142,3.1657.2113,1.848,2.6032,1.9646,5.7853,2.5074,8.82,2.0164,11.2753,1.9974,22.78,3.8548,34.0765a3.3241,3.3241,0,0,0,2.1148,2.9,48.1317,48.1317,0,0,1,16.8206,12.8989,49.7817,49.7817,0,0,0,8.2913,7.5783,28.7613,28.7613,0,0,1,10.4691,13.8717c2.0371,5.8864,5.419,11.2515,12.1488,12.5042a70.8308,70.8308,0,0,1,27.311,11.1349,11.13,11.13,0,0,0,2.0449.9065c4.5392,1.8781,8.3273,4.6067,10.4611,9.2145v4.5056c-4.3625,8.9349-9.8449,16.801-19.6257,20.5653a12.7183,12.7183,0,0,0-2.5465,1.19c-6.24,4.1669-13.1765,5.3523-20.58,5.5928-6.8894.2237-13.8925-.1922-20.6589,1.8664-2.0686.6294-4.2968.2839-6.45.2511a4.5,4.5,0,0,0-4.2394,2.2046q-2.2776,3.5571-4.4521,7.1749c-.2021.3378-.3828.6779-.5539,1.0191-7.7011,16.9292-16.1542,32.1294-22.8373,44.9172,8.7815,5.7185,15.4472,14.5357,27.5257,11.9181,14.6086-3.1658,21.3341-17.0672,34.1313-22.4956,13.2621-5.6256,27.3452-2.0553,44.9913-5.43,18.2448-3.4891,30.9733-21.64,37.2342-37.2342C344.407,343.6407,322.1759,321.5533,311.7565,302.2073Z"/></g></svg>